<svg xmlns="http://www.w3.org/2000/svg" width="760" height="190" viewBox="0 0 760 190" role="img" aria-labelledby="title desc">
<title id="title">學習頻率</title>
<desc id="desc">2026-07-03 至 2026-07-23，以 2026-07-13 為中心</desc>
<style>text{font-family:-apple-system,BlinkMacSystemFont,"Segoe UI",sans-serif;fill:#8b949e}.title{font-size:16px;font-weight:600;fill:#58a6ff}.small{font-size:11px}.legend{font-size:12px}</style>
<text class="title" x="36" y="26">Learning Frequency</text>
<text class="legend" x="36" y="48">2026-07-03 — 2026-07-23</text>
<rect x="36" y="76" width="26" height="26" rx="4" fill="#30363d" stroke="none" stroke-width="1"/>
<text class="small" x="49.0" y="118" text-anchor="middle">03</text>
<text class="small" x="49.0" y="133" text-anchor="middle">Fri</text>
<rect x="69" y="76" width="26" height="26" rx="4" fill="#30363d" stroke="none" stroke-width="1"/>
<text class="small" x="82.0" y="118" text-anchor="middle">04</text>
<text class="small" x="82.0" y="133" text-anchor="middle">Sat</text>
<rect x="102" y="76" width="26" height="26" rx="4" fill="#30363d" stroke="none" stroke-width="1"/>
<text class="small" x="115.0" y="118" text-anchor="middle">05</text>
<text class="small" x="115.0" y="133" text-anchor="middle">Sun</text>
<rect x="135" y="76" width="26" height="26" rx="4" fill="#30363d" stroke="none" stroke-width="1"/>
<text class="small" x="148.0" y="118" text-anchor="middle">06</text>
<text class="small" x="148.0" y="133" text-anchor="middle">Mon</text>
<rect x="168" y="76" width="26" height="26" rx="4" fill="#30363d" stroke="none" stroke-width="1"/>
<text class="small" x="181.0" y="118" text-anchor="middle">07</text>
<text class="small" x="181.0" y="133" text-anchor="middle">Tue</text>
<rect x="201" y="76" width="26" height="26" rx="4" fill="#30363d" stroke="none" stroke-width="1"/>
<text class="small" x="214.0" y="118" text-anchor="middle">08</text>
<text class="small" x="214.0" y="133" text-anchor="middle">Wed</text>
<rect x="234" y="76" width="26" height="26" rx="4" fill="#30363d" stroke="none" stroke-width="1"/>
<text class="small" x="247.0" y="118" text-anchor="middle">09</text>
<text class="small" x="247.0" y="133" text-anchor="middle">Thu</text>
<rect x="267" y="76" width="26" height="26" rx="4" fill="#30363d" stroke="none" stroke-width="1"/>
<text class="small" x="280.0" y="118" text-anchor="middle">10</text>
<text class="small" x="280.0" y="133" text-anchor="middle">Fri</text>
<rect x="300" y="76" width="26" height="26" rx="4" fill="#30363d" stroke="none" stroke-width="1"/>
<text class="small" x="313.0" y="118" text-anchor="middle">11</text>
<text class="small" x="313.0" y="133" text-anchor="middle">Sat</text>
<rect x="333" y="76" width="26" height="26" rx="4" fill="#40c463" stroke="none" stroke-width="1"/>
<text class="small" x="346.0" y="118" text-anchor="middle">12</text>
<text class="small" x="346.0" y="133" text-anchor="middle">Sun</text>
<rect x="366" y="76" width="26" height="26" rx="4" fill="#216e39" stroke="#f2cc60" stroke-width="2"/>
<text class="small" x="379.0" y="118" text-anchor="middle">13</text>
<text class="small" x="379.0" y="133" text-anchor="middle">Mon</text>
<rect x="399" y="76" width="26" height="26" rx="4" fill="none" stroke="#484f58" stroke-width="1"/>
<text class="small" x="412.0" y="118" text-anchor="middle">14</text>
<text class="small" x="412.0" y="133" text-anchor="middle">Tue</text>
<rect x="432" y="76" width="26" height="26" rx="4" fill="none" stroke="#484f58" stroke-width="1"/>
<text class="small" x="445.0" y="118" text-anchor="middle">15</text>
<text class="small" x="445.0" y="133" text-anchor="middle">Wed</text>
<rect x="465" y="76" width="26" height="26" rx="4" fill="none" stroke="#484f58" stroke-width="1"/>
<text class="small" x="478.0" y="118" text-anchor="middle">16</text>
<text class="small" x="478.0" y="133" text-anchor="middle">Thu</text>
<rect x="498" y="76" width="26" height="26" rx="4" fill="none" stroke="#484f58" stroke-width="1"/>
<text class="small" x="511.0" y="118" text-anchor="middle">17</text>
<text class="small" x="511.0" y="133" text-anchor="middle">Fri</text>
<rect x="531" y="76" width="26" height="26" rx="4" fill="none" stroke="#484f58" stroke-width="1"/>
<text class="small" x="544.0" y="118" text-anchor="middle">18</text>
<text class="small" x="544.0" y="133" text-anchor="middle">Sat</text>
<rect x="564" y="76" width="26" height="26" rx="4" fill="none" stroke="#484f58" stroke-width="1"/>
<text class="small" x="577.0" y="118" text-anchor="middle">19</text>
<text class="small" x="577.0" y="133" text-anchor="middle">Sun</text>
<rect x="597" y="76" width="26" height="26" rx="4" fill="none" stroke="#484f58" stroke-width="1"/>
<text class="small" x="610.0" y="118" text-anchor="middle">20</text>
<text class="small" x="610.0" y="133" text-anchor="middle">Mon</text>
<rect x="630" y="76" width="26" height="26" rx="4" fill="none" stroke="#484f58" stroke-width="1"/>
<text class="small" x="643.0" y="118" text-anchor="middle">21</text>
<text class="small" x="643.0" y="133" text-anchor="middle">Tue</text>
<rect x="663" y="76" width="26" height="26" rx="4" fill="none" stroke="#484f58" stroke-width="1"/>
<text class="small" x="676.0" y="118" text-anchor="middle">22</text>
<text class="small" x="676.0" y="133" text-anchor="middle">Wed</text>
<rect x="696" y="76" width="26" height="26" rx="4" fill="none" stroke="#484f58" stroke-width="1"/>
<text class="small" x="709.0" y="118" text-anchor="middle">23</text>
<text class="small" x="709.0" y="133" text-anchor="middle">Thu</text>
<rect x="36" y="155" width="12" height="12" rx="2" fill="#30363d"/>
<text class="legend" x="54" y="166">No activity</text>
<rect x="124" y="155" width="12" height="12" rx="2" fill="#9be9a8"/>
<text class="legend" x="142" y="166">1 type</text>
<rect x="212" y="155" width="12" height="12" rx="2" fill="#40c463"/>
<text class="legend" x="230" y="166">2 types</text>
<rect x="300" y="155" width="12" height="12" rx="2" fill="#216e39"/>
<text class="legend" x="318" y="166">Language + TIL + TMQ</text>
</svg>
